<svg xmlns="http://www.w3.org/2000/svg" width="140" height="156" viewBox="0 0 140 156">
  <path id="Caminho_27" data-name="Caminho 27" d="M610.656,431.919a25.354,25.354,0,0,0-15.135-19.153A29.078,29.078,0,0,0,588.814,411h-.345c-.515,0-1.031-.16-1.548-.16h-2.064a20.6,20.6,0,0,0-10.492,2.57c-8.771,4.017-14.619,12.21-14.619,21.85l.172,13.335a8.859,8.859,0,0,1-2.064,0,26.225,26.225,0,0,1-2.752-.483c-.171,0-.171,0-.344-.16a66.274,66.274,0,0,0-23.219-.483c-4.644.643-7.567,1.125-9.116.161l-.171-12.21a22.106,22.106,0,0,0-1.892-8.836,12.374,12.374,0,0,0-1.892-4.016,30.85,30.85,0,0,0-6.707-6.426,24.577,24.577,0,0,0-15.135-4.5h0C482.523,411.8,471,422.727,471,435.9v32.934l.172,40.647.344,33.417c.171,13.173,11.7,24.1,25.97,23.937h3.268c12.9-.964,23.046-11.567,23.39-23.777,0-4.5-.171-9.157,0-13.656v-.643c0-4.659-.171-9.157-.171-13.977.515-.161-.172-3.213.344-3.213.86-10.925,6.88-12.21,19.09-13.977a42.128,42.128,0,0,0,16.855-5.463,35.653,35.653,0,0,0,4.987-3.695c8.944-8.194,10.664-18.316,11.008-29.079,0-1.607.172-3.052.172-4.5,0-6.427-.344-13.013-.172-19.6a8.47,8.47,0,0,1,7.4-8.515c4.127-.482,8.771,2.57,10.147,6.747a17.606,17.606,0,0,1,.688,5.945c0,8.032.172,16.065.172,24.1,0,1.607-.172,3.052-.172,4.5-1.72,20.564-14.791,36.951-34.226,43.7a74.035,74.035,0,0,1-16,3.373c-2.064.16-4.3.16-5.847,1.607a6.809,6.809,0,0,0-1.032,11.568,3.163,3.163,0,0,0,1.72,1.124,26.215,26.215,0,0,0,8.944.8l2.924-.161L558.2,528.6h1.2c.172,4.5.344,8.675.344,13.173h0v.321c0,7.39,3.784,13.977,9.459,18.476.344.161.688.482,1.032.643l.171.161a25.653,25.653,0,0,0,15.135,4.5h0c12.556-.16,22.875-8.675,25.111-19.76a.92.92,0,0,0,.171-.643v-.643a19.119,19.119,0,0,0,.172-3.053l-.344-43.217L611,468.033l-.344-23.361c.25-.273,0-1.987,0-1.987s.049-1.557,0-2.666c-.081-1.864.09-4.169,0-4.761ZM485.1,434.776a10.786,10.786,0,0,1,11.008-10.6,11.075,11.075,0,0,1,11.351,10.443l.172,15.744a29.222,29.222,0,0,1-.345,4.017,63.251,63.251,0,0,0-21.67,16.708l-.516-36.309Zm73.44,34.542c-2.236,7.391-8.427,12.209-17.543,12.852a37.392,37.392,0,0,0-18.575,5.784,30.372,30.372,0,0,0-11.351,14.138c-2.065,4.5-2.065,9.157-2.065,13.977v8.193c0,5.624.172,11.246.172,17.03,0,7.229-4.471,12.049-11.007,12.209-6.536,0-11.352-4.82-11.868-11.888-.171-4.981-.171-10.122-.171-15.263a128.425,128.425,0,0,1,.344-18.154,54.111,54.111,0,0,1,3.956-15.262c5.847-13.5,17.887-23.778,31.818-28.758a57.208,57.208,0,0,1,31.646-2.088c4.816.8,6.02,2.891,4.644,7.229ZM596.9,542.257a10.786,10.786,0,0,1-11.008,10.6,11.075,11.075,0,0,1-11.351-10.443l-.172-15.744a24.662,24.662,0,0,1,.344-3.535,65.533,65.533,0,0,0,21.844-16.548l.344,35.666Z" transform="translate(-471 -410.839)" fill="#df1a5c"/>
</svg>
