<svg id="Layer_1" data-name="Layer 1" xmlns="http://www.w3.org/2000/svg" xmlns:xlink="http://www.w3.org/1999/xlink" viewBox="0 0 319.05 380.36"><defs><style>.cls-1,.cls-2{fill:none;}.cls-2{clip-path:url(#clip-path);}.cls-3{clip-path:url(#clip-path-5);}.cls-4{fill:#df1a5c;}</style><clipPath id="clip-path"><rect class="cls-1" x="0.56" y="178" width="998.88" height="643.2"/></clipPath><clipPath id="clip-path-5" transform="translate(-340.4 -309.61)"><rect class="cls-2" x="0.56" y="178" width="998.88" height="643.2"/></clipPath></defs><title>Untitled-2</title><g class="cls-3"><path class="cls-4" d="M659.25,360.14A60.75,60.75,0,0,0,624,314.31,62.46,62.46,0,0,0,608.72,310h-.78c-1.18,0-2.35-.39-3.53-.39h-4.7c-9,0-16.84,2-23.89,6.27a58.87,58.87,0,0,0-33.3,53.27l.39,32.51c-1.56.39-2.74,0-4.7,0-1.56-.39-3.91-.39-6.26-1.17-.4,0-.4,0-.79-.4-17.23-3.91-35.25-3.91-52.88-1.17-10.58,1.57-17.24,2.74-20.76.39l-.39-29.77A57.17,57.17,0,0,0,452.82,348a31.11,31.11,0,0,0-4.31-9.8,72.76,72.76,0,0,0-15.28-15.67,53.4,53.4,0,0,0-34.47-11h0c-32.12.39-58.36,27-58.36,59.15V451l.39,99.1.78,81.48c.39,32.12,26.64,58.76,59.15,58.37h7.44c29.38-2.35,52.49-28.21,53.28-58,0-11-.39-22.33,0-33.29v-1.57c0-11.36-.39-22.33-.39-34.08,1.17-.39-.4-7.84.78-7.84,2-26.63,15.67-29.77,43.48-34.07a91.72,91.72,0,0,0,38.39-13.32,82.86,82.86,0,0,0,11.36-9c20.37-20,24.28-44.66,25.07-70.9,0-3.92.39-7.45.39-11,0-15.67-.78-31.73-.39-47.79.39-11.75,7.44-19.19,16.84-20.76,9.4-1.18,20,6.27,23.11,16.45,1.57,4.7,1.57,9.79,1.57,14.49,0,19.59.39,39.18.39,58.76,0,3.92-.39,7.44-.39,11C617.73,499.2,588,539.15,543.7,555.61a159.18,159.18,0,0,1-36.43,8.22c-4.7.39-9.8.39-13.32,3.92a17.63,17.63,0,0,0-8.62,14.89A17.91,17.91,0,0,0,491.6,596a7.2,7.2,0,0,0,3.92,2.75c4.31,1.56,11,2.35,20.37,1.95l6.65-.39L539,596.74h2.74c.39,11,.78,21.15.78,32.12h0v.78c0,18,8.62,34.08,21.55,45.05.78.39,1.56,1.17,2.35,1.57l.39.39a55.73,55.73,0,0,0,34.47,11h0a59.15,59.15,0,0,0,57.19-48.19,2.34,2.34,0,0,0,.39-1.56V636.3a50.12,50.12,0,0,0,.39-7.44l-.78-105.37L657.3,368.37c2.35-2.75,2.35-5.49,2-8.23ZM372.52,368c0-14.1,11-25.85,25.07-25.85a26,26,0,0,1,25.85,25.46l.39,38.39a76.47,76.47,0,0,1-.78,9.79,145.91,145.91,0,0,0-49.36,40.74L372.52,368Zm167.26,84.22c-5.09,18-19.19,29.77-40,31.34-16.84,1.18-30.55,5.88-42.3,14.1a73.32,73.32,0,0,0-25.85,34.47c-4.7,11-4.7,22.33-4.7,34.08v20c0,13.71.39,27.42.39,41.52,0,17.63-10.19,29.38-25.07,29.77-14.89,0-25.86-11.75-27-29-.39-12.15-.39-24.68-.39-37.22-.39-14.49-.79-29.38.78-44.26,1.57-12.54,3.92-25.07,9-37.21,13.32-32.91,40.74-58,72.47-70.12,22.72-8.62,47.79-11,72.07-5.09,11,1.95,13.71,7.05,10.58,17.62ZM627.13,630c0,14.11-11,25.86-25.07,25.86a26,26,0,0,1-25.85-25.47L575.82,592a64.21,64.21,0,0,1,.78-8.62,150.6,150.6,0,0,0,49.75-40.35l.78,87Z" transform="translate(-340.4 -309.61)"/></g></svg>