<svg xmlns="http://www.w3.org/2000/svg" xmlns:xlink="http://www.w3.org/1999/xlink" width="375" height="812" viewBox="0 0 375 812">
  <defs>
    <clipPath id="clip-path">
      <path id="Caminho_13" data-name="Caminho 13" d="M384.5,411H689.25V609.347H384.5Z" transform="translate(-384.5 -411)"/>
    </clipPath>
    <clipPath id="clip-path-2">
      <path id="Caminho_4" data-name="Caminho 4" d="M384.5,609.347H689.25V411H384.5Z" transform="translate(-384.5 -411)"/>
    </clipPath>
    <clipPath id="clip-iPhone_X_XS_11_Pro_2">
      <rect width="375" height="812"/>
    </clipPath>
  </defs>
  <g id="iPhone_X_XS_11_Pro_2" data-name="iPhone X, XS, 11 Pro – 2" clip-path="url(#clip-iPhone_X_XS_11_Pro_2)">
    <rect width="375" height="812" fill="#e0195c"/>
    <g id="Grupo_14" data-name="Grupo 14">
      <g id="Grupo_13" data-name="Grupo 13">
        <g id="HeraRosa" transform="translate(-349.5 -104)">
          <g id="Grupo_9" data-name="Grupo 9" transform="translate(384.5 411)">
            <g id="Grupo_8" data-name="Grupo 8" clip-path="url(#clip-path)">
              <g id="Grupo_3" data-name="Grupo 3" clip-path="url(#clip-path-2)">
                <path id="Caminho_3" data-name="Caminho 3" d="M568.281,426.483a18.712,18.712,0,0,0-10.756-14.133,18.982,18.982,0,0,0-4.661-1.329h-.239c-.359,0-.717-.121-1.076-.121h-1.434a13.452,13.452,0,0,0-7.29,1.933,18.174,18.174,0,0,0-10.158,16.428l.119,10.026a5.677,5.677,0,0,1-1.434,0,16.9,16.9,0,0,1-1.912-.362c-.12,0-.12,0-.239-.121a42.614,42.614,0,0,0-16.134-.362c-3.227.483-5.258.846-6.334.121l-.12-9.18a17.785,17.785,0,0,0-1.315-6.644,9.665,9.665,0,0,0-1.315-3.02,22.3,22.3,0,0,0-4.661-4.832,16.175,16.175,0,0,0-10.517-3.382h0A18.238,18.238,0,0,0,471,429.744v24.763l.12,30.561.239,25.125a18.074,18.074,0,0,0,18.046,18h2.271c8.963-.725,16.014-8.7,16.253-17.878,0-3.382-.12-6.885,0-10.268v-.483c0-3.5-.12-6.885-.12-10.509.359-.121-.12-2.416.239-2.416.6-8.214,4.78-9.18,13.266-10.509a27.764,27.764,0,0,0,11.712-4.107,25.031,25.031,0,0,0,3.466-2.778c6.215-6.161,7.41-13.771,7.649-21.864,0-1.208.119-2.3.119-3.382,0-4.832-.239-9.784-.119-14.737.119-3.624,2.271-5.919,5.139-6.4,2.868-.362,6.095,1.933,7.051,5.073a14.256,14.256,0,0,1,.478,4.469c0,6.04.12,12.08.12,18.119,0,1.208-.12,2.3-.12,3.382-1.2,15.462-10.278,27.783-23.782,32.857a48.082,48.082,0,0,1-11.114,2.537c-1.434.121-2.988.121-4.063,1.208a5.444,5.444,0,0,0-2.629,4.59,5.555,5.555,0,0,0,1.912,4.107,2.192,2.192,0,0,0,1.2.846,16.891,16.891,0,0,0,6.215.6l2.032-.121,5.019-1.087h.837c.119,3.382.239,6.523.239,9.905h0v.242a18.355,18.355,0,0,0,6.573,13.891c.239.121.478.362.717.483l.12.121a16.881,16.881,0,0,0,10.517,3.382h0a18.1,18.1,0,0,0,17.448-14.858.733.733,0,0,0,.119-.483v-.483a15.566,15.566,0,0,0,.12-2.3l-.239-32.494-.358-47.835a2.926,2.926,0,0,0,.6-2.537ZM480.8,428.9a7.8,7.8,0,0,1,7.649-7.973,7.975,7.975,0,0,1,7.888,7.852l.12,11.838a23.781,23.781,0,0,1-.239,3.02A44.587,44.587,0,0,0,481.158,456.2l-.359-27.3ZM531.83,454.87c-1.554,5.557-5.856,9.18-12.19,9.664a24.623,24.623,0,0,0-12.907,4.349,22.586,22.586,0,0,0-7.888,10.63c-1.434,3.382-1.434,6.885-1.434,10.509v6.161c0,4.228.12,8.456.12,12.8,0,5.436-3.107,9.06-7.649,9.18-4.541,0-7.888-3.624-8.246-8.939-.12-3.745-.12-7.61-.12-11.476a104.451,104.451,0,0,1,.239-13.65,43.411,43.411,0,0,1,2.749-11.476A39.075,39.075,0,0,1,506.614,451a36.906,36.906,0,0,1,21.99-1.57c3.346.6,4.183,2.174,3.227,5.436Zm26.651,54.841a7.8,7.8,0,0,1-7.649,7.973,7.975,7.975,0,0,1-7.888-7.852l-.12-11.838a19.951,19.951,0,0,1,.239-2.658,46.089,46.089,0,0,0,15.178-12.442l.239,26.817Z" transform="translate(-367.624 -411.021)" fill="#fff"/>
              </g>
              <g id="Grupo_4" data-name="Grupo 4" clip-path="url(#clip-path-2)">
                <path id="Caminho_5" data-name="Caminho 5" d="M387.09,582.344a3.155,3.155,0,0,1-1.434-.362,1.231,1.231,0,0,1-.6-1.208l-.359-42.882a1.231,1.231,0,0,1,.6-1.208,2.815,2.815,0,0,1,1.434-.362,3.155,3.155,0,0,1,1.434.362c.478.242.6.6.6,1.208l.12,18.844,17.926-.121-.12-18.844a1.231,1.231,0,0,1,.6-1.208,3.019,3.019,0,0,1,2.868,0c.478.242.6.6.6,1.208l.239,42.882a1.231,1.231,0,0,1-.6,1.208,2.907,2.907,0,0,1-1.434.483,2.815,2.815,0,0,1-1.434-.362,1.231,1.231,0,0,1-.6-1.208l-.12-20.414-17.926.121.12,20.414a1.231,1.231,0,0,1-.6,1.208,2.55,2.55,0,0,1-1.315.242Z" transform="translate(-384.461 -384.964)" fill="#fff"/>
              </g>
              <g id="Grupo_5" data-name="Grupo 5" clip-path="url(#clip-path-2)">
                <path id="Caminho_7" data-name="Caminho 7" d="M465.632,581.844a2,2,0,0,1-1.2-.362,1.492,1.492,0,0,1-.6-1.208l-.239-42.762a1.231,1.231,0,0,1,.6-1.208,2.508,2.508,0,0,1,1.2-.483L487.5,535.7a1.319,1.319,0,0,1,1.2.6,2.349,2.349,0,0,1,.359,1.208,2.454,2.454,0,0,1-.359,1.329,1.315,1.315,0,0,1-1.2.6l-19.958.121.12,17.274,9.68-.121a1.526,1.526,0,0,1,1.2.483,1.828,1.828,0,0,1,.478,1.329,2.056,2.056,0,0,1-.359,1.208,1.252,1.252,0,0,1-1.2.483l-9.68.121.12,17.395,19.958-.121a1.526,1.526,0,0,1,1.2.483,1.828,1.828,0,0,1,.478,1.329,2.057,2.057,0,0,1-.359,1.208,1.315,1.315,0,0,1-1.2.6l-22.348.6Z" transform="translate(-369.068 -385.068)" fill="#fff"/>
              </g>
              <g id="Grupo_6" data-name="Grupo 6" clip-path="url(#clip-path-2)">
                <path id="Caminho_9" data-name="Caminho 9" d="M562.9,581.223a1.452,1.452,0,0,1-1.2-.725,10.082,10.082,0,0,1-.956-1.45l-9.68-18.844-7.888.121.12,19.327a1.231,1.231,0,0,1-.6,1.208,2.907,2.907,0,0,1-1.434.483,3.154,3.154,0,0,1-1.434-.362,1.231,1.231,0,0,1-.6-1.208L539,536.891a1.183,1.183,0,0,1,.478-1.087,1.816,1.816,0,0,1,1.2-.483l10.995-.121a19.464,19.464,0,0,1,6.693,1.087,9.5,9.5,0,0,1,4.9,3.745,13.122,13.122,0,0,1,1.912,7.369,13.878,13.878,0,0,1-1.2,6.4,8.382,8.382,0,0,1-3.466,3.865,16.017,16.017,0,0,1-4.9,1.933l9.68,18.6c.12.121.12.242.12.483v.483a1.617,1.617,0,0,1-.359.966,2.808,2.808,0,0,1-.837.846,7.725,7.725,0,0,1-1.315.242Zm-19.958-24.642,8.485-.121a10.553,10.553,0,0,0,6.693-2.054c1.673-1.329,2.629-3.624,2.51-6.765,0-3.141-.837-5.557-2.629-6.765a10.877,10.877,0,0,0-6.812-1.933l-8.485.121.239,17.515Z" transform="translate(-354.358 -385.172)" fill="#fff"/>
              </g>
              <g id="Grupo_7" data-name="Grupo 7" clip-path="url(#clip-path-2)">
                <path id="Caminho_11" data-name="Caminho 11" d="M614.89,580.806c-.358,0-.717-.121-1.076-.121a2.6,2.6,0,0,1-.956-.6,1.1,1.1,0,0,1-.358-.846.922.922,0,0,1,.119-.483l12.668-42.883a2.762,2.762,0,0,1,.837-1.208,2.15,2.15,0,0,1,1.554-.362,3.279,3.279,0,0,1,1.554.362,1.313,1.313,0,0,1,.837,1.208l13.266,42.762c0,.121.119.242.119.362a1.1,1.1,0,0,1-.359.846,2.144,2.144,0,0,1-.837.6,4.209,4.209,0,0,1-1.2.242,1.713,1.713,0,0,1-.837-.242,1.54,1.54,0,0,1-.6-.846l-2.988-9.784-17.09.121-2.749,9.784a2.165,2.165,0,0,1-.6.846,7.722,7.722,0,0,1-1.315.242Zm5.378-14.375,15.058-.121-7.649-25.367-7.41,25.488Z" transform="translate(-340.018 -385.359)" fill="#fff"/>
              </g>
            </g>
          </g>
        </g>
      </g>
    </g>
  </g>
</svg>
